<?xml version="1.0" encoding="iso-8859-1"?>
<!-- Generator: Adobe Illustrator 18.1.1, SVG Export Plug-In . SVG Version: 6.00 Build 0)  -->
<!DOCTYPE svg PUBLIC "-//W3C//DTD SVG 1.1//EN" "http://www.w3.org/Graphics/SVG/1.1/DTD/svg11.dtd" [
	<!ENTITY st0 "fill:#F36C31;">
]>
<svg version="1.1" id="Ebene_1" xmlns="http://www.w3.org/2000/svg" xmlns:xlink="http://www.w3.org/1999/xlink" x="0px" y="0px"
	 viewBox="0 0 595.3 841.9" style="enable-background:new 0 0 595.3 841.9;" xml:space="preserve">
<path style="&st0;" d="M452,257c0,0-21.5-2.2-81.8,32.8l-72.5-4.2v-0.2l-1.5,0.1l-1.5-0.1v0.2l-72.4,4.2
	c-60.3-35-78.9-32.8-78.9-32.8c-2.7,24.8,12.2,92.6,12.2,92.6c-35.6,113.7,41.1,154.9,50.7,152c9.6-2.9,9.3-5.8,13.7-5.9
	c22.8-0.4,28.3,61.5,43.4,76.1c14.6,14.1,31.7,13.2,32.8,13.1c1.1,0.1,18.2,1,32.8-13.1c15.1-14.6,20.6-76.5,43.4-76.1
	c4.4,0.1,4.1,3,13.7,5.9c9.6,2.9,86.4-38.3,50.7-152C436.8,349.6,454.7,281.8,452,257z M254.2,405.3h-11.6V417
	c0,5.7-4.4,10.4-9.9,10.4c-5.5,0-9.9-4.6-9.9-10.4v-11.7h-11.6c-5.7,0-10.3-4.5-10.3-9.9c0-5.5,4.6-10,10.3-10h11.6v-11.7
	c0-5.7,4.4-10.3,9.9-10.3c5.5,0,9.9,4.6,9.9,10.3v11.7h11.6c5.7,0,10.3,4.5,10.3,10C264.5,400.9,259.9,405.3,254.2,405.3z
	 M340.8,404.2c-6.1,0-11-4.9-11-11c0-6.1,4.9-11,11-11c6.1,0,11,4.9,11,11C351.8,399.3,346.9,404.2,340.8,404.2z M363.5,427.8
	c-6.1,0-11-4.9-11-11c0-6.1,4.9-11,11-11c6.1,0,11,4.9,11,11C374.4,422.8,369.5,427.8,363.5,427.8z M363.5,382.7
	c-6.1,0-11-4.9-11-11c0-6.1,4.9-11,11-11c6.1,0,11,4.9,11,11C374.4,377.8,369.5,382.7,363.5,382.7z M387,404.2c-6.1,0-11-4.9-11-11
	c0-6.1,4.9-11,11-11c6.1,0,11,4.9,11,11C398,399.3,393,404.2,387,404.2z"/>
</svg>
