<?xml version="1.0" encoding="utf-8"?>
<!-- Generator: Adobe Illustrator 21.0.0, SVG Export Plug-In . SVG Version: 6.00 Build 0)  -->
<svg version="1.1" xmlns="http://www.w3.org/2000/svg" xmlns:xlink="http://www.w3.org/1999/xlink" x="0px" y="0px"
	 viewBox="0 0 910 200" style="enable-background:new 0 0 910 200;" xml:space="preserve">
<style type="text/css">
	.st0{fill:#F24725;}
	.st1{fill-rule:evenodd;clip-rule:evenodd;fill:#F24725;}
	.st2{fill:none;}
	.st3{fill:#253335;}
	.st4{font-family:'FiraSans-ExtraBoldItalic';}
	.st5{font-size:147.0706px;}
	.st6{letter-spacing:-1;}
	.st7{letter-spacing:2;}
	.st8{font-size:157.39px;}
	.st9{letter-spacing:1;}
	.st10{fill:#2F2F2F;}
	.st11{fill:#FFFFFF;}
	.st12{fill-rule:evenodd;clip-rule:evenodd;fill:#FFFFFF;}
</style>
<g id="Layer_2">
</g>
<g id="Layer_1">
	<path class="st1" d="M189.3,10.1c0-0.6,0-1.2,0-1.8c0-2-1.7-3.4-3.7-3.2c-2.7,0.4-5.3,1.2-7.8,2.1c-11.2,3.8-21.6,9.2-31.8,15
		c-2,1.1-3.9,2.8-6.3,2.6c-12.5-0.7-12.8-3.4-40.5-3.4c-27.8,0-28,2.6-40.5,3.4c-2.4,0.2-4.3-0.9-6.3-2
		C42.3,17.1,31.8,11.3,20.7,7.5c-2.5-0.9-5.1-1.9-7.9-2.3C10.8,5,9.3,6.4,9.3,8.4c0,0.6,0,1.2,0,1.8c0.5,13.4,2.9,26.5,5.5,39.6
		c1.1,5.5,1.3,10.6-0.2,16.1c-3.9,14-1,28.4,2.6,42.7c0.8,3.1,1.7,6,2.8,8.8c4.5,11.2,9.4,16.1,20.6,20.6l5.3,2.1
		c1.7,0.7,3.5,1.3,5.3,1.8c3.9,1.1,7.5,2.9,10.5,5.5c4,3.4,7.1,11.9,9,17c1.3,3.5,2.5,11,3.8,14.5c1.8,5,5.7,8.5,9.9,10.9
		c9.2,5.2,20.7,5.2,29.9,0c4.2-2.4,8.2-5.9,9.9-10.9c1.2-3.5,2.5-11,3.8-14.5c1.9-5.1,5-13.5,9-17c3-2.6,6.7-4.4,10.5-5.5
		c1.8-0.5,3.5-1.1,5.3-1.8l5.3-2.1c9.5-3.9,17.1-11.4,20.8-21c1.1-2.7,1.9-5.5,2.7-8.4c3.6-14.3,6.5-28.7,2.6-42.7
		c-1.6-5.6-1.4-10.7-0.2-16.1C186.5,36.7,188.8,23.5,189.3,10.1z M77.4,85.5c0,2.4-1.9,4.3-4.3,4.3h-5.9c-1,0-1.8,0.8-1.8,1.8v5.7
		c0,2.4-1.9,4.3-4.3,4.3h-2.6c-2.4,0-4.3-1.9-4.3-4.3v-5.7c0-1-0.8-1.8-1.8-1.8h-5.7c-2.4,0-4.3-1.9-4.3-4.3V83
		c0-2.4,1.9-4.3,4.3-4.3h5.7c1,0,1.8-0.8,1.8-1.8V71c0-2.4,1.9-4.3,4.3-4.3H61c2.4,0,4.3,1.9,4.3,4.3v5.9c0,1,0.8,1.8,1.8,1.8h5.9
		c2.4,0,4.3,1.9,4.3,4.3V85.5z M135.8,67c3.3,0,6,2.7,6,6c0,3.5-2.6,6.2-6.1,6.2c-3.3,0-6.1-2.8-6.2-6C129.5,70,132.5,67,135.8,67z
		 M124.1,90.3c-3.3-0.1-6-2.9-6-6.2c0-3.4,2.8-6.2,6.3-6.1c3.2,0.1,6.1,2.9,6,6.1C130.4,87.4,127.4,90.4,124.1,90.3z M135.7,102.1
		c-3.3,0-6.1-2.7-6.2-6c-0.1-3.3,2.9-6.3,6.2-6.3c3.3,0,6,2.7,6,6C141.9,99.5,139.3,102.1,135.7,102.1z M147.9,90.3
		c-3.4,0.1-6.2-2.7-6.2-6.2c0-3.4,2.6-6,6-6.1c3.4-0.1,6.3,2.8,6.3,6.1C153.9,87.3,151.1,90.2,147.9,90.3z"/>
	<g>
		<rect x="202" y="11.3" class="st2" width="698.8" height="183.5"/>
		<text transform="matrix(1 0 0 1 201.9896 137.9807)"><tspan x="0" y="0" class="st3 st4 st5 st6">a</tspan><tspan x="82.8" y="0" class="st3 st4 st5 st7">d</tspan><tspan x="172.5" y="0" class="st0 st4 st8 st9">2</tspan><tspan x="254.8" y="0" class="st3 st4 st5">g</tspan><tspan x="338.5" y="0" class="st3 st4 st5 st6">am</tspan><tspan x="541.3" y="0" class="st3 st4 st5 st9">es</tspan></text>
	</g>
</g>
</svg>
